<svg width="1em" height="1em" viewBox="0 0 49 48" fill="none" xmlns="http://www.w3.org/2000/svg">
    <path
        d="M30.6146 4.00012C36.0346 4.00012 40.4146 6.14012 40.4746 11.5801V41.9401C40.4746 42.2801 40.3946 42.6201 40.2346 42.9201C39.9746 43.4001 39.5346 43.7601 38.9946 43.9201C38.4746 44.0801 37.8946 44.0001 37.4146 43.7201L24.4546 37.2401L11.4746 43.7201C11.1766 43.8781 10.8346 43.9801 10.4946 43.9801C9.37461 43.9801 8.47461 43.0601 8.47461 41.9401V11.5801C8.47461 6.14012 12.8746 4.00012 18.2746 4.00012H30.6146ZM31.9746 16.0801H16.9146C16.0546 16.0801 15.3546 16.7801 15.3546 17.6601C15.3546 18.5381 16.0546 19.2401 16.9146 19.2401H31.9746C32.8346 19.2401 33.5346 18.5381 33.5346 17.6601C33.5346 16.7801 32.8346 16.0801 31.9746 16.0801Z"
        fill="currentColor" />
</svg>