<svg width="1em" height="1em" viewBox="0 0 49 48" fill="none" xmlns="http://www.w3.org/2000/svg">
    <path
        d="M33.8133 4.00079C40.6153 4.00079 44.4553 7.85879 44.4753 14.6608V33.3408C44.4753 40.1408 40.6153 44.0008 33.8133 44.0008H15.1353C8.33334 44.0008 4.47534 40.1408 4.47534 33.3408V14.6608C4.47534 7.85879 8.33334 4.00079 15.1353 4.00079H33.8133ZM25.4753 12.2608C24.9133 11.9208 24.2333 11.9208 23.6953 12.2608C23.1533 12.5988 22.8553 13.2208 22.9133 13.8408V34.2208C23.0153 35.0808 23.7333 35.7208 24.5733 35.7208C25.4353 35.7208 26.1533 35.0808 26.2333 34.2208V13.8408C26.3133 13.2208 26.0153 12.5988 25.4753 12.2608ZM16.1353 18.8208C15.5953 18.4808 14.9133 18.4808 14.3753 18.8208C13.8333 19.1608 13.5353 19.7788 13.5953 20.4008V34.2208C13.6733 35.0808 14.3933 35.7208 15.2533 35.7208C16.1153 35.7208 16.8333 35.0808 16.9133 34.2208V20.4008C16.9753 19.7788 16.6733 19.1608 16.1353 18.8208ZM34.6533 26.0808C34.1153 25.7408 33.4353 25.7408 32.8753 26.0808C32.3333 26.4208 32.0353 27.0188 32.1153 27.6608V34.2208C32.1953 35.0808 32.9133 35.7208 33.7753 35.7208C34.6153 35.7208 35.3333 35.0808 35.4353 34.2208V27.6608C35.4933 27.0188 35.1953 26.4208 34.6533 26.0808Z"
        fill="currentColor" />
</svg>