<svg width="1em" height="1em" viewBox="0 0 20 19" fill="none" xmlns="http://www.w3.org/2000/svg">
    <path
        d="M17.626 5.26211C17.3773 4.68624 17.0187 4.16439 16.5702 3.72578C16.1214 3.28586 15.5923 2.93626 15.0116 2.69599C14.4095 2.44586 13.7636 2.31783 13.1116 2.31933C12.1969 2.31933 11.3044 2.56982 10.5288 3.04297C10.3433 3.15615 10.167 3.28047 10 3.41592C9.83301 3.28047 9.65674 3.15615 9.47119 3.04297C8.69561 2.56982 7.80313 2.31933 6.88838 2.31933C6.22969 2.31933 5.59141 2.44551 4.98838 2.69599C4.40576 2.9372 3.88066 3.28418 3.42979 3.72578C2.98076 4.1639 2.62206 4.68587 2.37402 5.26211C2.11611 5.86142 1.98438 6.49785 1.98438 7.15283C1.98438 7.7707 2.11055 8.41455 2.36104 9.06953C2.5707 9.61689 2.87129 10.1847 3.25537 10.758C3.86397 11.6653 4.70078 12.6116 5.73984 13.5709C7.46172 15.161 9.1669 16.2595 9.23926 16.304L9.679 16.586C9.87383 16.7104 10.1243 16.7104 10.3191 16.586L10.7589 16.304C10.8313 16.2576 12.5346 15.161 14.2583 13.5709C15.2974 12.6116 16.1342 11.6653 16.7428 10.758C17.1269 10.1847 17.4293 9.61689 17.6371 9.06953C17.8876 8.41455 18.0138 7.7707 18.0138 7.15283C18.0156 6.49785 17.8839 5.86142 17.626 5.26211Z"
        fill="currentColor" />
</svg>