<svg width="1em" height="1em" viewBox="0 0 49 48" fill="none" xmlns="http://www.w3.org/2000/svg">
    <path
        d="M17.0342 5.00122C18.2942 5.03954 19.5142 5.25954 20.6962 5.66154H20.8142C20.8942 5.69954 20.9542 5.74154 20.9942 5.77954C21.4362 5.92154 21.8542 6.08154 22.2542 6.30154L23.0142 6.64154C23.3142 6.80154 23.6742 7.09954 23.8742 7.22154C24.0742 7.33954 24.2942 7.46154 24.4742 7.59954C26.6962 5.90154 29.3942 4.98154 32.1742 5.00122C33.4362 5.00122 34.6962 5.17954 35.8942 5.58154C43.2762 7.98154 45.9362 16.0815 43.7142 23.1615C42.4542 26.7795 40.3942 30.0815 37.6962 32.7795C33.8342 36.5195 29.5962 39.8395 25.0342 42.6995L24.5342 43.0015L24.0142 42.6795C19.4362 39.8395 15.1742 36.5195 11.2762 32.7595C8.59615 30.0615 6.53415 26.7795 5.25415 23.1615C2.99415 16.0815 5.65415 7.98154 13.1162 5.53954C13.6962 5.33954 14.2942 5.19954 14.8942 5.12154H15.1342C15.6962 5.03954 16.2542 5.00122 16.8142 5.00122H17.0342ZM34.8542 11.3215C34.0342 11.0395 33.1342 11.4815 32.8342 12.3215C32.5542 13.1615 32.9942 14.0815 33.8342 14.3795C35.1162 14.8595 35.9742 16.1215 35.9742 17.5195V17.5815C35.9362 18.0395 36.0742 18.4815 36.3542 18.8215C36.6342 19.1615 37.0542 19.3595 37.4942 19.4015C38.3142 19.3795 39.0142 18.7215 39.0742 17.8795V17.6415C39.1342 14.8395 37.4362 12.3015 34.8542 11.3215Z"
        fill="currentColor" />
</svg>