<svg width="1em" height="1em" viewBox="0 0 49 48" fill="none" xmlns="http://www.w3.org/2000/svg">
    <path
        d="M18.7442 41.5467V35.4312C18.7442 33.8701 20.019 32.6046 21.5915 32.6046H27.3398C28.095 32.6046 28.8192 32.9024 29.3532 33.4325C29.8872 33.9626 30.1871 34.6816 30.1871 35.4312V41.5467C30.1824 42.1957 30.4387 42.8198 30.8994 43.2804C31.36 43.741 31.9867 44 32.6405 44H36.5623C38.3939 44.0047 40.1521 43.2857 41.4489 42.0016C42.7458 40.7175 43.4746 38.974 43.4746 37.1556V19.7337C43.4746 18.2649 42.8187 16.8717 41.6838 15.9293L28.3427 5.35174C26.0219 3.49712 22.6968 3.557 20.4454 5.49396L7.40863 15.9293C6.22009 16.8439 5.50971 18.2413 5.47461 19.7337V37.1379C5.47461 40.9277 8.56937 44 12.387 44H16.2192C17.5771 44 18.6806 42.9124 18.6904 41.5645L18.7442 41.5467Z"
        fill="currentColor" />
</svg>