<svg width="1em" height="1em" viewBox="0 0 49 48" fill="none" xmlns="http://www.w3.org/2000/svg">
    <path
        d="M23.4602 4C28.4253 4 32.4747 7.98 32.4747 12.88V22.46H20.2654C19.3904 22.46 18.6986 23.14 18.6986 24C18.6986 24.84 19.3904 25.54 20.2654 25.54H32.4747V35.1C32.4747 40 28.4253 44 23.4195 44H13.5096C8.52415 44 4.47473 40.02 4.47473 35.12V12.9C4.47473 7.98 8.5445 4 13.53 4H23.4602ZM37.5551 17.1004C38.1551 16.4804 39.1351 16.4804 39.7351 17.0804L45.5751 22.9004C45.8751 23.2004 46.0351 23.5804 46.0351 24.0004C46.0351 24.4004 45.8751 24.8004 45.5751 25.0804L39.7351 30.9004C39.4351 31.2004 39.0351 31.3604 38.6551 31.3604C38.2551 31.3604 37.8551 31.2004 37.5551 30.9004C36.9551 30.3004 36.9551 29.3204 37.5551 28.7204L40.7551 25.5404H32.4751V22.4604H40.7551L37.5551 19.2804C36.9551 18.6804 36.9551 17.7004 37.5551 17.1004Z"
        fill="currentColor" />
</svg>