<svg width="1em" height="1em" viewBox="0 0 49 48" fill="none" xmlns="http://www.w3.org/2000/svg">
    <path
        d="M25.9089 4.00018C27.4214 4.00018 28.7909 4.84018 29.5471 6.08018C29.915 6.68018 30.1603 7.42018 30.099 8.20018C30.0581 8.80018 30.242 9.40018 30.5691 9.96018C31.6115 11.6602 33.9211 12.3002 35.7197 11.3402C37.7432 10.1802 40.2981 10.8802 41.4631 12.8602L42.8326 15.2202C44.018 17.2002 43.364 19.7402 41.3201 20.8802C39.5827 21.9002 38.9696 24.1602 40.012 25.8802C40.339 26.4202 40.7069 26.8802 41.2792 27.1602C41.9945 27.5402 42.5464 28.1402 42.9347 28.7402C43.691 29.9802 43.6297 31.5002 42.8939 32.8402L41.4631 35.2402C40.7069 36.5202 39.2966 37.3202 37.8454 37.3202C37.13 37.3202 36.3329 37.1202 35.6789 36.7202C35.1474 36.3802 34.5343 36.2602 33.8802 36.2602C31.8567 36.2602 30.1603 37.9202 30.099 39.9002C30.099 42.2002 28.2186 44.0002 25.8681 44.0002H23.0883C20.7174 44.0002 18.837 42.2002 18.837 39.9002C18.7961 37.9202 17.0997 36.2602 15.0762 36.2602C14.4017 36.2602 13.7885 36.3802 13.2775 36.7202C12.6235 37.1202 11.8059 37.3202 11.111 37.3202C9.63938 37.3202 8.22908 36.5202 7.47283 35.2402L6.06253 32.8402C5.30628 31.5402 5.2654 29.9802 6.02165 28.7402C6.34868 28.1402 6.96185 27.5402 7.65678 27.1602C8.22908 26.8802 8.59698 26.4202 8.94445 25.8802C9.9664 24.1602 9.35323 21.9002 7.6159 20.8802C5.59243 19.7402 4.93837 17.2002 6.10341 15.2202L7.47283 12.8602C8.6583 10.8802 11.1928 10.1802 13.2367 11.3402C15.0149 12.3002 17.3245 11.6602 18.3669 9.96018C18.6939 9.40018 18.8779 8.80018 18.837 8.20018C18.7961 7.42018 19.0209 6.68018 19.4093 6.08018C20.1655 4.84018 21.535 4.04018 23.027 4.00018H25.9089ZM24.4986 18.3602C21.2897 18.3602 18.6939 20.8802 18.6939 24.0202C18.6939 27.1602 21.2897 29.6602 24.4986 29.6602C27.7076 29.6602 30.242 27.1602 30.242 24.0202C30.242 20.8802 27.7076 18.3602 24.4986 18.3602Z"
        fill="currentColor" />
</svg>