<svg width="1em" height="1em" viewBox="0 0 49 48" fill="none" xmlns="http://www.w3.org/2000/svg">
    <path fill-rule="evenodd" clip-rule="evenodd"
        d="M30.2686 5.6842C31.0966 5.6842 31.7686 6.3562 31.7686 7.1842C31.7686 8.0122 31.0966 8.6842 30.2686 8.6842H15.7326C10.7166 8.6842 7.47461 12.1322 7.47461 17.4722V33.6362C7.47461 39.0462 10.6386 42.4062 15.7326 42.4062H32.9406C37.9566 42.4062 41.1986 38.9642 41.1986 33.6362V19.5582C41.1986 18.7302 41.8706 18.0582 42.6986 18.0582C43.5266 18.0582 44.1986 18.7302 44.1986 19.5582V33.6362C44.1986 40.6762 39.6746 45.4062 32.9406 45.4062H15.7326C8.99861 45.4062 4.47461 40.6762 4.47461 33.6362V17.4722C4.47461 10.4222 8.99861 5.6842 15.7326 5.6842H30.2686ZM34.4994 19.3438C35.1554 19.8518 35.2754 20.7938 34.7674 21.4478L28.9074 29.0078C28.6634 29.3238 28.3034 29.5298 27.9074 29.5778C27.5074 29.6318 27.1114 29.5158 26.7954 29.2698L21.1594 24.8418L16.0974 31.4198C15.8014 31.8038 15.3574 32.0058 14.9074 32.0058C14.5874 32.0058 14.2654 31.9038 13.9934 31.6958C13.3374 31.1898 13.2134 30.2478 13.7194 29.5918L19.7054 21.8118C19.9494 21.4938 20.3114 21.2878 20.7074 21.2378C21.1114 21.1858 21.5074 21.2978 21.8214 21.5478L27.4614 25.9778L32.3954 19.6118C32.9034 18.9538 33.8434 18.8318 34.4994 19.3438ZM40.4094 4C43.3574 4 45.7534 6.396 45.7534 9.344C45.7534 12.292 43.3574 14.69 40.4094 14.69C37.4634 14.69 35.0654 12.292 35.0654 9.344C35.0654 6.396 37.4634 4 40.4094 4ZM40.4094 7C39.1174 7 38.0654 8.05 38.0654 9.344C38.0654 10.636 39.1174 11.69 40.4094 11.69C41.7014 11.69 42.7534 10.636 42.7534 9.344C42.7534 8.05 41.7014 7 40.4094 7Z"
        fill="currentColor" />
</svg>