<svg width="1em" height="1em" viewBox="0 0 49 48" fill="none" xmlns="http://www.w3.org/2000/svg">
    <path
        d="M6.47473 6C6.47473 4.4087 7.10687 2.88258 8.23209 1.75736C9.35731 0.632141 10.8834 0 12.4747 0L36.4747 0C38.066 0 39.5922 0.632141 40.7174 1.75736C41.8426 2.88258 42.4747 4.4087 42.4747 6V46.5C42.4746 46.7713 42.4009 47.0375 42.2614 47.2703C42.1219 47.503 41.9219 47.6936 41.6827 47.8216C41.4435 47.9497 41.1741 48.0105 40.9031 47.9975C40.632 47.9845 40.3696 47.8983 40.1437 47.748L24.4747 39.303L8.80573 47.748C8.57985 47.8983 8.31742 47.9845 8.04641 47.9975C7.77539 48.0105 7.50593 47.9497 7.26673 47.8216C7.02753 47.6936 6.82754 47.503 6.68807 47.2703C6.5486 47.0375 6.47487 46.7713 6.47473 46.5V6ZM12.4747 3C11.6791 3 10.916 3.31607 10.3534 3.87868C9.7908 4.44129 9.47473 5.20435 9.47473 6V43.698L23.6437 36.252C23.8899 36.0882 24.179 36.0008 24.4747 36.0008C24.7704 36.0008 25.0596 36.0882 25.3057 36.252L39.4747 43.698V6C39.4747 5.20435 39.1587 4.44129 38.5961 3.87868C38.0334 3.31607 37.2704 3 36.4747 3H12.4747Z"
        fill="currentColor" />
</svg>