<svg width="1em" height="1em" viewBox="0 0 49 48" fill="none" xmlns="http://www.w3.org/2000/svg">
    <path fill-rule="evenodd" clip-rule="evenodd"
        d="M29.8765 4C36.6605 4 40.5525 7.358 40.5525 13.208V42.28C40.5525 43.5 39.9245 44.598 38.8685 45.212C37.8165 45.828 36.5485 45.84 35.4845 45.24L23.5645 38.506L11.5345 45.254C11.0145 45.546 10.4445 45.694 9.87249 45.694C9.28249 45.694 8.69249 45.536 8.15649 45.22C7.10249 44.606 6.47449 43.508 6.47449 42.29V12.842C6.47449 7.222 10.3685 4 17.1585 4H29.8765ZM29.8765 7H17.1585C12.0605 7 9.47449 8.964 9.47449 12.842V42.29C9.47449 42.478 9.58249 42.58 9.67249 42.632C9.76249 42.688 9.90449 42.728 10.0685 42.636L22.8325 35.476C23.2885 35.222 23.8465 35.22 24.3045 35.478L36.9585 42.626C37.1245 42.722 37.2665 42.678 37.3565 42.624C37.4465 42.57 37.5525 42.468 37.5525 42.28L37.5518 12.9801C37.5366 11.2587 37.2036 7 29.8765 7ZM30.7541 17.457C31.5821 17.457 32.2541 18.129 32.2541 18.957C32.2541 19.785 31.5821 20.457 30.7541 20.457H16.1181C15.2901 20.457 14.6181 19.785 14.6181 18.957C14.6181 18.129 15.2901 17.457 16.1181 17.457H30.7541Z"
        fill="currentColor" />
</svg>