<svg width="1em" height="1em" viewBox="0 0 49 48" fill="none" xmlns="http://www.w3.org/2000/svg">
    <path fill-rule="evenodd" clip-rule="evenodd"
        d="M32.0616 2C32.8896 2 33.5616 2.672 33.5616 3.5L33.5625 5.19562C36.4827 5.39583 38.9081 6.39609 40.6246 8.1162C42.4986 9.9982 43.4846 12.7042 43.4747 15.9502V34.1962C43.4747 40.8602 39.2426 45.0002 32.4326 45.0002H15.5166C8.70661 45.0002 4.47461 40.8022 4.47461 34.0442V15.9462C4.47461 9.66058 8.24872 5.62588 14.404 5.19631L14.4052 3.5C14.4052 2.672 15.0772 2 15.9052 2C16.7332 2 17.4052 2.672 17.4052 3.5L17.4046 5.158H30.5606L30.5616 3.5C30.5616 2.672 31.2336 2 32.0616 2ZM40.4746 19.808H7.47461V34.0442C7.47461 39.1762 10.3306 42.0002 15.5166 42.0002H32.4326C37.6186 42.0002 40.4747 39.2282 40.4747 34.1962L40.4746 19.808ZM32.877 32.3926C33.705 32.3926 34.377 33.0646 34.377 33.8926C34.377 34.7206 33.705 35.3926 32.877 35.3926C32.049 35.3926 31.369 34.7206 31.369 33.8926C31.369 33.0646 32.031 32.3926 32.859 32.3926H32.877ZM24.002 32.3926C24.83 32.3926 25.502 33.0646 25.502 33.8926C25.502 34.7206 24.83 35.3926 24.002 35.3926C23.174 35.3926 22.494 34.7206 22.494 33.8926C22.494 33.0646 23.156 32.3926 23.984 32.3926H24.002ZM15.1084 32.3926C15.9364 32.3926 16.6084 33.0646 16.6084 33.8926C16.6084 34.7206 15.9364 35.3926 15.1084 35.3926C14.2804 35.3926 13.5984 34.7206 13.5984 33.8926C13.5984 33.0646 14.2624 32.3926 15.0904 32.3926H15.1084ZM32.877 24.6192C33.705 24.6192 34.377 25.2912 34.377 26.1192C34.377 26.9472 33.705 27.6192 32.877 27.6192C32.049 27.6192 31.369 26.9472 31.369 26.1192C31.369 25.2912 32.031 24.6192 32.859 24.6192H32.877ZM24.002 24.6192C24.83 24.6192 25.502 25.2912 25.502 26.1192C25.502 26.9472 24.83 27.6192 24.002 27.6192C23.174 27.6192 22.494 26.9472 22.494 26.1192C22.494 25.2912 23.156 24.6192 23.984 24.6192H24.002ZM15.1084 24.6192C15.9364 24.6192 16.6084 25.2912 16.6084 26.1192C16.6084 26.9472 15.9364 27.6192 15.1084 27.6192C14.2804 27.6192 13.5984 26.9472 13.5984 26.1192C13.5984 25.2912 14.2624 24.6192 15.0904 24.6192H15.1084ZM30.5606 8.158H17.4046L17.4052 10.082C17.4052 10.91 16.7332 11.582 15.9052 11.582C15.0772 11.582 14.4052 10.91 14.4052 10.082L14.4041 8.2034C9.92368 8.57979 7.47461 11.2957 7.47461 15.9462V16.808H40.4746L40.4747 15.9462C40.4826 13.4762 39.8186 11.5562 38.5006 10.2362C37.3436 9.07582 35.6523 8.3828 33.5633 8.20436L33.5616 10.082C33.5616 10.91 32.8896 11.582 32.0616 11.582C31.2336 11.582 30.5616 10.91 30.5616 10.082L30.5606 8.158Z"
        fill="currentColor" />
</svg>