<svg width="1em" height="1em" viewBox="0 0 49 48" fill="none" xmlns="http://www.w3.org/2000/svg">
    <path fill-rule="evenodd" clip-rule="evenodd"
        d="M33.3466 2C40.6006 2 45.4746 7.092 45.4746 14.67V32.33C45.4746 39.908 40.6006 45 33.3466 45H14.6026C7.34861 45 2.47461 39.908 2.47461 32.33V14.67C2.47461 7.092 7.34861 2 14.6026 2H33.3466ZM33.3466 5H14.6026C9.05861 5 5.47461 8.794 5.47461 14.67V32.33C5.47461 38.206 9.05861 42 14.6026 42H33.3466C38.8926 42 42.4746 38.206 42.4746 32.33V14.67C42.4746 8.794 38.8926 5 33.3466 5ZM14.7168 18.405C15.5448 18.405 16.2168 19.077 16.2168 19.905V33.625C16.2168 34.453 15.5448 35.125 14.7168 35.125C13.8888 35.125 13.2168 34.453 13.2168 33.625V19.905C13.2168 19.077 13.8888 18.405 14.7168 18.405ZM24.0508 11.837C24.8788 11.837 25.5508 12.509 25.5508 13.337V33.623C25.5508 34.451 24.8788 35.123 24.0508 35.123C23.2228 35.123 22.5508 34.451 22.5508 33.623V13.337C22.5508 12.509 23.2228 11.837 24.0508 11.837ZM33.2314 25.655C34.0594 25.655 34.7314 26.327 34.7314 27.155V33.623C34.7314 34.451 34.0594 35.123 33.2314 35.123C32.4034 35.123 31.7314 34.451 31.7314 33.623V27.155C31.7314 26.327 32.4034 25.655 33.2314 25.655Z"
        fill="currentColor" />
</svg>