<svg width="1em" height="1em" viewBox="0 0 49 48" fill="none" xmlns="http://www.w3.org/2000/svg">
    <g clip-path="url(#clip0_52_183)">
        <path
            d="M8.50873 35.682C8.82012 35.9946 9.05873 36.372 9.20756 36.7874C9.35638 37.2027 9.41175 37.6458 9.36973 38.085C9.15889 40.1177 8.75916 42.1264 8.17573 44.085C12.3607 43.116 14.9167 41.994 16.0777 41.406C16.7362 41.0725 17.4946 40.9934 18.2077 41.184C20.252 41.729 22.359 42.0033 24.4747 42C36.4627 42 45.4747 33.579 45.4747 24C45.4747 14.424 36.4627 6 24.4747 6C12.4867 6 3.47473 14.424 3.47473 24C3.47473 28.404 5.32573 32.49 8.50873 35.682ZM7.02973 47.397C6.31894 47.5379 5.60584 47.6669 4.89073 47.784C4.29073 47.88 3.83473 47.256 4.07173 46.698C4.33811 46.0698 4.58226 45.4324 4.80373 44.787L4.81273 44.757C5.55673 42.597 6.16273 40.113 6.38473 37.8C2.70373 34.11 0.474731 29.28 0.474731 24C0.474731 12.402 11.2207 3 24.4747 3C37.7287 3 48.4747 12.402 48.4747 24C48.4747 35.598 37.7287 45 24.4747 45C22.0977 45.0032 19.7305 44.6946 17.4337 44.082C15.8737 44.871 12.5167 46.308 7.02973 47.397Z"
            fill="currentColor" />
    </g>
</svg>