<svg width="1em" height="1em" viewBox="0 0 49 48" fill="none" xmlns="http://www.w3.org/2000/svg">
    <path fill-rule="evenodd" clip-rule="evenodd"
        d="M41.9756 40.8791C42.8036 40.8791 43.4756 41.5511 43.4756 42.3791C43.4756 43.2071 42.8036 43.8791 41.9756 43.8791H27.4696C26.6416 43.8791 25.9696 43.2071 25.9696 42.3791C25.9696 41.5511 26.6416 40.8791 27.4696 40.8791H41.9756ZM32.7072 7.30729C32.8072 7.38529 36.1532 9.98529 36.1532 9.98529C37.3692 10.7093 38.3192 12.0033 38.6792 13.5353C39.0372 15.0513 38.7772 16.6153 37.9432 17.9373C37.9376 17.9461 37.9321 17.9548 37.9128 17.9807L37.8977 18.0008C37.7623 18.1792 37.1738 18.9233 34.2037 22.6445C34.1762 22.6932 34.1449 22.7389 34.1108 22.7833C34.0607 22.8487 34.0062 22.9088 33.948 22.9636C33.7454 23.2187 33.5314 23.4867 33.3064 23.7685L32.8506 24.3394C31.91 25.5174 30.7943 26.9142 29.4707 28.5709L28.7914 29.4212C26.2361 32.6195 22.9635 36.7145 18.7712 41.9593C17.8532 43.1033 16.4772 43.7693 14.9992 43.7873L7.72116 43.8793H7.70116C7.00716 43.8793 6.40316 43.4033 6.24116 42.7253L4.60316 35.7833C4.26516 34.3453 4.60116 32.8613 5.52316 31.7093L24.3632 8.14529C24.3712 8.13729 24.3772 8.12729 24.3852 8.11929C26.4512 5.64929 30.1872 5.28529 32.7072 7.30729ZM22.2626 15.574L7.86516 33.5833C7.52316 34.0113 7.39716 34.5633 7.52316 35.0933L8.88516 40.8633L14.9632 40.7873C15.5412 40.7813 16.0752 40.5233 16.4292 40.0833C18.2521 37.8025 20.5433 34.9358 22.8989 31.988L23.7323 30.9451L24.5671 29.9004C26.7763 27.1358 28.9587 24.4041 30.7849 22.1177L22.2626 15.574ZM26.6952 10.0333L24.1366 13.23L32.6582 19.7719C34.2984 17.7174 35.3774 16.3643 35.4772 16.2353C35.8052 15.7033 35.9332 14.9513 35.7612 14.2273C35.5852 13.4853 35.1232 12.8553 34.4572 12.4533C34.3152 12.3553 30.9452 9.73929 30.8412 9.65729C29.5732 8.64129 27.7232 8.81729 26.6952 10.0333Z"
        fill="currentColor" />
</svg>