<svg width="1em" height="1em" viewBox="0 0 49 48" fill="none" xmlns="http://www.w3.org/2000/svg">
    <path fill-rule="evenodd" clip-rule="evenodd"
        d="M19.7599 4C21.6619 4.002 23.4739 4.91 24.6099 6.428L26.4319 8.852C27.0099 9.62 27.9279 10.078 28.8879 10.08H34.5459C42.2699 10.08 45.8679 14.038 45.8679 22.536L45.8119 32.47C45.8099 40.406 40.8779 45.338 32.9379 45.338H17.3739C9.41788 45.338 4.47388 40.404 4.47388 32.464V16.866C4.47388 8.328 8.27188 4 15.7599 4H19.7599ZM19.7579 7H15.7599C9.95188 7 7.47388 9.952 7.47388 16.866V32.464C7.47388 38.832 10.9899 42.338 17.3739 42.338H32.9379C39.3059 42.338 42.8119 38.832 42.8119 32.464V32.458L42.8679 22.528C42.8679 15.73 40.5359 13.08 34.5459 13.08H28.8859C26.9879 13.078 25.1759 12.172 24.0359 10.656L22.2099 8.228C21.6359 7.458 20.7179 7.002 19.7579 7ZM33.9063 28.4256C34.7343 28.4256 35.4063 29.0976 35.4063 29.9256C35.4063 30.7536 34.7343 31.4256 33.9063 31.4256H16.4363C15.6083 31.4256 14.9363 30.7536 14.9363 29.9256C14.9363 29.0976 15.6083 28.4256 16.4363 28.4256H33.9063Z"
        fill="currentColor" />
</svg>