<svg width="1em" height="1em" viewBox="0 0 49 48" fill="none" xmlns="http://www.w3.org/2000/svg">
    <g clip-path="url(#clip0_52_187)">
        <path
            d="M24.4747 33.334C26.95 33.334 29.3239 32.3507 31.0742 30.6004C32.8244 28.8502 33.8077 26.4763 33.8077 24.001C33.8077 21.5257 32.8244 19.1518 31.0742 17.4016C29.3239 15.6513 26.95 14.668 24.4747 14.668C21.9995 14.668 19.6256 15.6513 17.8753 17.4016C16.125 19.1518 15.1417 21.5257 15.1417 24.001C15.1417 26.4763 16.125 28.8502 17.8753 30.6004C19.6256 32.3507 21.9995 33.334 24.4747 33.334ZM40.4747 45.334C41.8891 45.334 43.2456 44.7721 44.2457 43.772C45.2459 42.7719 45.8077 41.4154 45.8077 40.001C45.8077 38.5866 45.2459 37.2301 44.2457 36.23C43.2456 35.2299 41.8891 34.668 40.4747 34.668C39.0603 34.668 37.7039 35.2299 36.7037 36.23C35.7036 37.2301 35.1417 38.5866 35.1417 40.001C35.1417 41.4154 35.7036 42.7719 36.7037 43.772C37.7039 44.7721 39.0603 45.334 40.4747 45.334ZM13.8087 41.334C12.0417 41.3293 10.3485 40.6252 9.09899 39.3757C7.84953 38.1263 7.14548 36.433 7.14073 34.666V29.334H0.474732V34.666C0.474206 36.4172 0.818742 38.1513 1.48865 39.7693C2.15856 41.3873 3.14072 42.8575 4.379 44.0957C5.61728 45.334 7.08742 46.3162 8.70541 46.9861C10.3234 47.656 12.0575 48.0005 13.8087 48H19.1407V41.334H13.8087ZM7.14073 13.334C7.14073 9.666 10.1407 6.666 13.8087 6.666H19.1407V6.00386e-07H13.8087C12.0575 -0.000524968 10.3234 0.34401 8.70541 1.01392C7.08742 1.68383 5.61728 2.66599 4.379 3.90427C3.14072 5.14255 2.15856 6.61269 1.48865 8.23068C0.818742 9.84867 0.474206 11.5828 0.474732 13.334V18.666H7.14073V13.334ZM35.1407 6.666C38.8087 6.666 41.8087 9.666 41.8087 13.334V18.666H48.4747V13.334C48.4753 11.5828 48.1307 9.84867 47.4608 8.23068C46.7909 6.61269 45.8087 5.14255 44.5705 3.90427C43.3322 2.66599 41.862 1.68383 40.2441 1.01392C38.6261 0.34401 36.8919 -0.000524968 35.1407 6.00386e-07H29.8087V6.666H35.1407Z"
            fill="currentColor" />
    </g>
</svg>