<svg width="1em" height="1em" viewBox="0 0 49 48" fill="none" xmlns="http://www.w3.org/2000/svg">
    <path fill-rule="evenodd" clip-rule="evenodd"
        d="M24.944 8.07799C28.196 6.02199 32.516 5.45399 36.248 6.64999C44.366 9.26799 46.886 18.118 44.632 25.16C41.154 36.22 26.3 44.47 25.67 44.816C25.446 44.94 25.198 45.002 24.95 45.002C24.702 45.002 24.456 44.942 24.232 44.82C23.606 44.478 8.86003 36.35 5.26603 25.162C5.26403 25.162 5.26403 25.16 5.26403 25.16C3.00803 18.116 5.52003 9.26399 13.63 6.64999C17.438 5.41799 21.588 5.95999 24.944 8.07799ZM14.55 9.50599C7.98803 11.622 6.34003 18.68 8.12203 24.246C10.926 32.97 22.004 40.024 24.948 41.77C27.902 40.006 39.06 32.874 41.774 24.254C43.556 18.682 41.902 11.624 35.33 9.50599C32.146 8.48399 28.432 9.10599 25.868 11.09C25.332 11.502 24.588 11.51 24.048 11.102C21.332 9.05999 17.784 8.46199 14.55 9.50599ZM33.41 13.4778C36.136 14.3598 38.046 16.7738 38.28 19.6278C38.346 20.4538 37.732 21.1778 36.906 21.2438C36.864 21.2478 36.824 21.2498 36.782 21.2498C36.008 21.2498 35.352 20.6558 35.288 19.8718C35.156 18.2278 34.056 16.8398 32.49 16.3338C31.7 16.0778 31.268 15.2318 31.522 14.4458C31.78 13.6578 32.618 13.2298 33.41 13.4778Z"
        fill="currentColor" />
</svg>