<svg width="1em" height="1em" viewBox="0 0 53 53" fill="none" xmlns="http://www.w3.org/2000/svg">
    <path
        d="M5.22754 14.6785C5.9213 13.0721 6.92164 11.6164 8.17256 10.3929C9.42442 9.1658 10.9004 8.1906 12.5202 7.52039C14.1999 6.82265 16.0014 6.46552 17.8202 6.4697C20.3719 6.4697 22.8614 7.16843 25.0249 8.48826C25.5425 8.80398 26.0342 9.15076 26.5 9.52859C26.9658 9.15076 27.4575 8.80398 27.9751 8.48826C30.1386 7.16843 32.6281 6.4697 35.1798 6.4697C37.0172 6.4697 38.7977 6.82166 40.4798 7.52039C42.105 8.19324 43.5697 9.16111 44.8274 10.3929C46.08 11.6151 47.0806 13.0711 47.7725 14.6785C48.4919 16.3503 48.8594 18.1256 48.8594 19.9526C48.8594 21.6761 48.5074 23.4721 47.8087 25.2992C47.2238 26.826 46.3854 28.4098 45.314 30.0092C43.6163 32.5401 41.282 35.1798 38.3836 37.8556C33.5805 42.2913 28.8239 45.3553 28.6221 45.4796L27.3954 46.2663C26.852 46.6131 26.1532 46.6131 25.6098 46.2663L24.3831 45.4796C24.1812 45.3502 19.4299 42.2913 14.6216 37.8556C11.7231 35.1798 9.38887 32.5401 7.69121 30.0092C6.61982 28.4098 5.77617 26.826 5.19649 25.2992C4.49776 23.4721 4.1458 21.6761 4.1458 19.9526C4.14062 18.1256 4.50811 16.3503 5.22754 14.6785V14.6785ZM26.5 42.1722C26.5 42.1722 44.9258 30.3663 44.9258 19.9526C44.9258 14.6785 40.5626 10.4033 35.1798 10.4033C31.3963 10.4033 28.1148 12.515 26.5 15.5998C24.8852 12.515 21.6037 10.4033 17.8202 10.4033C12.4374 10.4033 8.07422 14.6785 8.07422 19.9526C8.07422 30.3663 26.5 42.1722 26.5 42.1722Z"
        fill="currentColor" />
</svg>