<svg width="1em" height="1em" viewBox="0 0 49 48" fill="none" xmlns="http://www.w3.org/2000/svg">
    <path fill-rule="evenodd" clip-rule="evenodd"
        d="M27.9084 30.5826C30.3164 30.5826 32.2764 32.5286 32.2764 34.9206V41.0726C32.2764 41.5866 32.6884 41.9986 33.2164 42.0106H37.0284C40.0324 42.0106 42.4744 39.5986 42.4744 36.6346V19.1866C42.4604 18.1666 41.9744 17.2066 41.1404 16.5686L27.9544 6.05256C26.1844 4.65056 23.7084 4.65056 21.9324 6.05656L8.83637 16.5646C7.97037 17.2226 7.48437 18.1826 7.47437 19.2206V36.6346C7.47437 39.5986 9.91636 42.0106 12.9204 42.0106H16.7684C17.3104 42.0106 17.7504 41.5806 17.7504 41.0526C17.7504 40.9366 17.7644 40.8206 17.7884 40.7106V34.9206C17.7884 32.5426 19.7364 30.5986 22.1264 30.5826H27.9084ZM37.0284 45.0106H33.1804C30.9764 44.9586 29.2764 43.2286 29.2764 41.0726V34.9206C29.2764 34.1826 28.6624 33.5826 27.9084 33.5826H22.1364C21.3984 33.5866 20.7884 34.1886 20.7884 34.9206V41.0526C20.7884 41.2026 20.7684 41.3466 20.7264 41.4826C20.5104 43.4626 18.8184 45.0106 16.7684 45.0106H12.9204C8.26236 45.0106 4.47437 41.2526 4.47437 36.6346V19.2066C4.49437 17.2186 5.41037 15.3986 6.99237 14.2006L20.0624 3.71056C22.9404 1.43056 26.9504 1.43056 29.8224 3.70656L42.9864 14.2066C44.5324 15.3846 45.4484 17.2006 45.4744 19.1646V36.6346C45.4744 41.2526 41.6864 45.0106 37.0284 45.0106Z"
        fill="currentColor" />
</svg>