<svg width="1em" height="1em" viewBox="0 0 49 48" fill="none" xmlns="http://www.w3.org/2000/svg">
    <path fill-rule="evenodd" clip-rule="evenodd"
        d="M24.9736 4C34.0716 4 41.4736 11.458 41.4736 20.626C41.4736 31.896 28.5616 43 24.9736 43C21.3856 43 8.47363 31.896 8.47363 20.626C8.47363 11.458 15.8756 4 24.9736 4ZM24.9736 7C17.5296 7 11.4736 13.114 11.4736 20.626C11.4736 30.184 22.7216 39.496 24.9736 39.992C27.2256 39.494 38.4736 30.182 38.4736 20.626C38.4736 13.114 32.4176 7 24.9736 7ZM24.9756 14C28.5596 14 31.4756 16.916 31.4756 20.502C31.4756 24.086 28.5596 27 24.9756 27C21.3916 27 18.4756 24.086 18.4756 20.502C18.4756 16.916 21.3916 14 24.9756 14ZM24.9756 17C23.0456 17 21.4756 18.57 21.4756 20.502C21.4756 22.432 23.0456 24 24.9756 24C26.9056 24 28.4756 22.432 28.4756 20.502C28.4756 18.57 26.9056 17 24.9756 17Z"
        fill="currentColor" />
</svg>