<svg width="1em" height="1em" viewBox="0 0 49 48" fill="none" xmlns="http://www.w3.org/2000/svg">
    <path fill-rule="evenodd" clip-rule="evenodd"
        d="M23.0913 4C27.9833 4 31.9633 7.98 31.9633 12.872V14.736C31.9633 15.564 31.2913 16.236 30.4633 16.236C29.6353 16.236 28.9633 15.564 28.9633 14.736V12.872C28.9633 9.632 26.3293 7 23.0913 7H13.3413C10.1073 7 7.47534 9.632 7.47534 12.872V35.13C7.47534 38.368 10.1073 41 13.3413 41H23.1133C26.3373 41 28.9633 38.376 28.9633 35.152V33.266C28.9633 32.438 29.6353 31.766 30.4633 31.766C31.2913 31.766 31.9633 32.438 31.9633 33.266V35.152C31.9633 40.032 27.9913 44 23.1133 44H13.3413C8.45334 44 4.47534 40.022 4.47534 35.13V12.872C4.47534 7.98 8.45334 4 13.3413 4H23.0913ZM39.2515 17.108L45.1075 22.938C45.1598 22.9898 45.2066 23.0437 45.2494 23.1008L45.1075 22.938C45.1784 23.0079 45.2414 23.0842 45.2961 23.1656C45.3202 23.2025 45.3434 23.2406 45.3649 23.2798C45.3823 23.3105 45.3984 23.3424 45.4133 23.3749C45.4259 23.4036 45.438 23.4324 45.4493 23.4615C45.4644 23.4995 45.4776 23.5386 45.4891 23.5782C45.4979 23.6094 45.5059 23.6405 45.5129 23.672C45.5219 23.7102 45.5289 23.7486 45.5344 23.7874C45.5376 23.8125 45.5406 23.8389 45.543 23.8655C45.5476 23.9111 45.5495 23.9555 45.5495 24L45.5393 24.124L45.5352 24.2035C45.5348 24.2068 45.5343 24.2102 45.5338 24.2136L45.5495 24C45.5495 24.111 45.5372 24.221 45.5134 24.3278C45.5059 24.3595 45.4979 24.3906 45.4889 24.4213C45.4776 24.4614 45.4644 24.5005 45.4496 24.5389C45.438 24.5676 45.4259 24.5964 45.413 24.6246C45.3984 24.6576 45.3823 24.6895 45.3651 24.7209C45.3434 24.7594 45.3202 24.7975 45.2953 24.8345C45.2813 24.8564 45.2659 24.8781 45.2499 24.8993C45.2023 24.962 45.1504 25.0209 45.0943 25.0755L39.2515 30.894C38.9595 31.186 38.5755 31.332 38.1935 31.332C37.8095 31.332 37.4235 31.186 37.1315 30.89C36.5475 30.302 36.5495 29.354 37.1355 28.77L40.4153 25.5H19.9669C19.1389 25.5 18.4669 24.828 18.4669 24C18.4669 23.172 19.1389 22.5 19.9669 22.5H40.4193L37.1355 19.232C36.5495 18.648 36.5455 17.7 37.1315 17.112C37.7155 16.524 38.6635 16.524 39.2515 17.108Z"
        fill="currentColor" />
</svg>