<svg width="1em" height="1em" viewBox="0 0 57 56" fill="none" xmlns="http://www.w3.org/2000/svg">
    <path fill-rule="evenodd" clip-rule="evenodd"
        d="M23.4812 49.7645C24.8254 51.2674 26.5511 52.093 28.3416 52.093H28.3442C30.1426 52.093 31.876 51.2673 33.2229 49.7619C33.9443 48.9622 35.1743 48.8971 35.971 49.6186C36.7702 50.3401 36.8351 51.5773 36.1163 52.3769C34.0195 54.7133 31.261 56 28.3442 56H28.339C25.43 55.9974 22.6767 54.7107 20.5877 52.3743C19.8689 51.5747 19.9338 50.3375 20.7331 49.6186C21.5323 48.8945 22.7624 48.9596 23.4812 49.7645ZM28.4709 0C40.0057 0 47.7544 9.0173 47.7544 17.4381C47.7544 21.7697 48.8521 23.606 50.0173 25.5542C51.1694 27.4765 52.4747 29.6592 52.4747 33.7849C51.5691 44.326 40.6051 45.1855 28.4709 45.1855C16.3366 45.1855 5.37008 44.326 4.47477 33.9516C4.46702 29.6592 5.77231 27.4765 6.92449 25.5542L7.33124 24.867C8.33274 23.1394 9.18734 21.2601 9.18734 17.4381C9.18734 9.0173 16.936 0 28.4709 0ZM28.4709 3.90698C19.4013 3.90698 13.0799 11.0385 13.0799 17.4381C13.0799 22.8532 11.5825 25.3563 10.2591 27.565C9.19772 29.3388 8.35953 30.7401 8.35953 33.7849C8.7929 38.6973 12.0237 41.2785 28.4709 41.2785C44.8272 41.2785 48.1592 38.5827 48.59 33.6156C48.5822 30.7401 47.744 29.3388 46.6827 27.565C45.3592 25.3563 43.8619 22.8532 43.8619 17.4381C43.8619 11.0385 37.5404 3.90698 28.4709 3.90698Z"
        fill="currentColor" />
</svg>