<svg width="1em" height="1em" viewBox="0 0 49 48" fill="none" xmlns="http://www.w3.org/2000/svg">
    <path fill-rule="evenodd" clip-rule="evenodd"
        d="M40.1544 36.3862C40.1544 42.9782 31.1144 43.7402 24.3164 43.7402L23.8299 43.7398C19.4988 43.7293 8.47437 43.4558 8.47437 36.3462C8.47437 29.8887 17.1511 29.0257 23.8973 28.9932L24.8028 28.9926C29.1337 29.0031 40.1544 29.2766 40.1544 36.3862ZM24.3164 31.9922C15.7944 31.9922 11.4744 33.4562 11.4744 36.3462C11.4744 39.2622 15.7944 40.7402 24.3164 40.7402C32.8364 40.7402 37.1544 39.2762 37.1544 36.3862C37.1544 33.4702 32.8364 31.9922 24.3164 31.9922ZM24.3164 3.99939C30.1724 3.99939 34.9344 8.76339 34.9344 14.6194C34.9344 20.4754 30.1724 25.2374 24.3164 25.2374H24.2524C18.4084 25.2194 13.6744 20.4534 13.6943 14.6134C13.6943 8.76339 18.4584 3.99939 24.3164 3.99939ZM24.3164 6.85539C20.0344 6.85539 16.5503 10.3374 16.5503 14.6194C16.5364 18.8874 19.9944 22.3674 24.2584 22.3834L24.3164 23.8114V22.3834C28.5964 22.3834 32.0784 18.8994 32.0784 14.6194C32.0784 10.3374 28.5964 6.85539 24.3164 6.85539Z"
        fill="currentColor" />
</svg>