<svg width="1em" height="1em" viewBox="0 0 49 48" fill="none" xmlns="http://www.w3.org/2000/svg">
    <path fill-rule="evenodd" clip-rule="evenodd"
        d="M23.9524 4C34.6924 4 43.4284 12.736 43.4284 23.476C43.4284 28.5431 41.4838 33.1646 38.3017 36.633L44.5632 42.8814C45.1492 43.4674 45.1512 44.4154 44.5652 45.0014C44.2732 45.2974 43.8872 45.4434 43.5032 45.4434C43.1212 45.4434 42.7372 45.2974 42.4432 45.0054L36.1061 38.686C32.7725 41.3557 28.5457 42.954 23.9524 42.954C13.2124 42.954 4.47437 34.216 4.47437 23.476C4.47437 12.736 13.2124 4 23.9524 4ZM23.9524 7C14.8664 7 7.47437 14.39 7.47437 23.476C7.47437 32.562 14.8664 39.954 23.9524 39.954C33.0364 39.954 40.4284 32.562 40.4284 23.476C40.4284 14.39 33.0364 7 23.9524 7Z"
        fill="currentColor" />
</svg>