<svg width="1em" height="1em" viewBox="0 0 49 48" fill="none" xmlns="http://www.w3.org/2000/svg">
    <path fill-rule="evenodd" clip-rule="evenodd"
        d="M25.0091 4.00098C26.4411 4.00098 27.8331 4.58898 28.8311 5.61098C29.8271 6.63898 30.3771 8.04898 30.3351 9.47898C30.3391 9.80098 30.4451 10.173 30.6371 10.499C30.9551 11.039 31.4571 11.419 32.0531 11.575C32.6491 11.723 33.2731 11.643 33.8031 11.329C36.3631 9.86698 39.6211 10.743 41.0831 13.283L42.3291 15.441C42.3611 15.499 42.3891 15.555 42.4131 15.613C43.7371 18.115 42.8531 21.265 40.3931 22.703C40.0351 22.909 39.7451 23.197 39.5451 23.545C39.2351 24.083 39.1491 24.723 39.3051 25.311C39.4651 25.911 39.8471 26.409 40.3851 26.717C41.5991 27.415 42.5051 28.591 42.8671 29.949C43.2291 31.305 43.0311 32.777 42.3251 33.991L40.9971 36.203C39.5351 38.715 36.2771 39.585 33.7431 38.121C33.4051 37.927 33.0151 37.821 32.6271 37.811H32.6151C32.0371 37.811 31.4431 38.057 31.0111 38.487C30.5731 38.925 30.3331 39.509 30.3371 40.129C30.3231 43.067 27.9331 45.443 25.0091 45.443H22.5031C19.5651 45.443 17.1751 43.055 17.1751 40.117C17.1711 39.755 17.0671 39.379 16.8731 39.053C16.5591 38.505 16.0511 38.113 15.4651 37.957C14.8831 37.801 14.2451 37.887 13.7211 38.191C12.4651 38.891 10.9871 39.061 9.63513 38.681C8.28513 38.299 7.11913 37.371 6.43513 36.141L5.18513 33.987C3.72313 31.451 4.59313 28.201 7.12513 26.737C7.84313 26.323 8.28913 25.551 8.28913 24.723C8.28913 23.895 7.84313 23.121 7.12513 22.707C4.59113 21.235 3.72313 17.977 5.18313 15.441L6.53913 13.215C7.98113 10.707 11.2411 9.82298 13.7831 11.283C14.1291 11.489 14.5051 11.593 14.8871 11.597C16.1331 11.597 17.1751 10.569 17.1951 9.30498C17.1871 7.91098 17.7371 6.57298 18.7391 5.56298C19.7451 4.55498 21.0811 4.00098 22.5031 4.00098H25.0091ZM25.0091 7.00098H22.5031C21.8831 7.00098 21.3031 7.24298 20.8651 7.67898C20.4291 8.11698 20.1911 8.69898 20.1951 9.31898C20.1531 12.243 17.7631 14.597 14.8691 14.597C13.9411 14.587 13.0471 14.337 12.2711 13.873C11.1811 13.253 9.75713 13.635 9.11913 14.745L7.76513 16.971C7.14513 18.047 7.52513 19.469 8.62913 20.111C10.2671 21.059 11.2891 22.827 11.2891 24.723C11.2891 26.619 10.2671 28.385 8.62513 29.335C7.52713 29.971 7.14713 31.385 7.78313 32.485L9.04513 34.661C9.35713 35.223 9.86713 35.629 10.4571 35.795C11.0451 35.959 11.6931 35.889 12.2331 35.589C13.0271 35.123 13.9511 34.881 14.8791 34.881C15.3371 34.881 15.7951 34.939 16.2431 35.059C17.5951 35.423 18.7691 36.327 19.4651 37.541C19.9171 38.303 20.1671 39.193 20.1751 40.101C20.1751 41.401 21.2191 42.443 22.5031 42.443H25.0091C26.2871 42.443 27.3311 41.407 27.3371 40.129C27.3291 38.717 27.8811 37.375 28.8911 36.365C29.8871 35.369 31.2791 34.771 32.6711 34.811C33.5831 34.833 34.4611 35.079 35.2351 35.519C36.3491 36.157 37.7711 35.777 38.4151 34.677L39.7431 32.463C40.0391 31.953 40.1251 31.313 39.9671 30.723C39.8111 30.133 39.4191 29.621 38.8911 29.319C37.6551 28.607 36.7731 27.459 36.4071 26.083C36.0451 24.733 36.2431 23.259 36.9491 22.045C37.4091 21.245 38.0831 20.571 38.8911 20.107C39.9751 19.473 40.3551 18.055 39.7251 16.951C39.6991 16.907 39.6751 16.861 39.6551 16.813L38.4831 14.781C37.8451 13.671 36.4251 13.289 35.3111 13.923C34.1071 14.635 32.6751 14.839 31.2991 14.477C29.9251 14.121 28.7731 13.251 28.0551 12.023C27.5951 11.255 27.3451 10.361 27.3371 9.45098C27.3551 8.76698 27.1151 8.15298 26.6791 7.70298C26.2451 7.25498 25.6351 7.00098 25.0091 7.00098ZM23.7649 17.9492C27.4989 17.9492 30.5369 20.9892 30.5369 24.7232C30.5369 28.4572 27.4989 31.4932 23.7649 31.4932C20.0309 31.4932 16.9929 28.4572 16.9929 24.7232C16.9929 20.9892 20.0309 17.9492 23.7649 17.9492ZM23.7649 20.9492C21.6849 20.9492 19.9929 22.6432 19.9929 24.7232C19.9929 26.8032 21.6849 28.4932 23.7649 28.4932C25.8449 28.4932 27.5369 26.8032 27.5369 24.7232C27.5369 22.6432 25.8449 20.9492 23.7649 20.9492Z"
        fill="currentColor" />
</svg>